<?xml version="1.0" encoding="UTF-8"?>
<svg width="52.44px" height="52.157px" enable-background="new -2.279 -1.878 52.44 52.157" version="1.1" viewBox="-2.279 -1.878 52.44 52.157" xml:space="preserve" xmlns="http://www.w3.org/2000/svg" xmlns:xlink="http://www.w3.org/1999/xlink">
<path d="M48,33.178C48,41.363,41.3,48,33.035,48h-18.07  C6.7,48,0,41.363,0,33.178V15.106C0,6.92,6.7,0.284,14.965,0.284h18.07C41.3,0.284,48,6.92,48,15.106V33.178z" fill="#54C2BA" stroke="#4F4F4F" stroke-width="2.8347"/>
<defs>
	
	
		

	
	
	

		
			<radialGradient id="path11605_1_" cx="377.06" cy="-417.79" r="22.829" gradientTransform="matrix(.6842 0 0 -.7688 -233.35 -290.25)" gradientUnits="userSpaceOnUse">
			<stop offset="0"/>
			<stop stop-opacity="0" offset="1"/>
		</radialGradient>
		
			
		
			<linearGradient id="path12260_1_" x1="312.85" x2="313.65" y1="-270.31" y2="-264.94" gradientTransform="matrix(.8405 0 0 -1 -230.22 -266.2)" gradientUnits="userSpaceOnUse">
			<stop stop-color="#ACACAC" offset="0"/>
			<stop stop-color="#8D8D8D" stop-opacity="0" offset="1"/>
		</linearGradient>
		
			
		
			<radialGradient id="path11595_1_" cx="120.37" cy="-55.72" r="13.263" gradientTransform="matrix(1.8664 0 0 -2.3051 -203.23 -114.61)" gradientUnits="userSpaceOnUse">
			<stop stop-color="#fff" offset="0"/>
			<stop stop-color="#D9D9D9" offset=".3733"/>
			<stop stop-color="#C5C5C5" offset=".6031"/>
			<stop stop-color="#909090" offset="1"/>
		</radialGradient>
		
			
		
		
			<linearGradient id="path11617_1_" x1="141.68" x2="141.68" y1="-162.09" y2="-156.45" gradientTransform="matrix(1.6663 0 0 -1.4178 -211.81 -211.27)" gradientUnits="userSpaceOnUse">
			<stop stop-color="#fff" offset="0"/>
			<stop stop-color="#A9A9A9" offset="1"/>
		</linearGradient>
		
			
		
			<linearGradient id="path11633_1_" x1="329.3" x2="334.5" y1="-267.66" y2="-321.58" gradientTransform="matrix(.7714 0 0 -1 -231.64 -265.2)" gradientUnits="userSpaceOnUse">
			<stop stop-color="#fff" offset="0"/>
			<stop stop-color="#fff" stop-opacity="0" offset="1"/>
		</linearGradient>
		
			
		
			<linearGradient id="path11619_1_" x1="302.86" x2="302.86" y1="-272.78" y2="-281.26" gradientTransform="matrix(.8405 0 0 -1 -230.3 -263.46)" gradientUnits="userSpaceOnUse">
			<stop stop-color="#B1B1B1" offset="0"/>
			<stop stop-color="#DFDFDF" offset=".2"/>
			<stop stop-color="#565656" offset="1"/>
		</linearGradient>
		
			
		
			
	</defs>

<path d="M48,33.178C48,41.363,41.3,48,33.035,48h-18.07  C6.7,48,0,41.363,0,33.178V15.106C0,6.92,6.7,0.284,14.965,0.284h18.07C41.3,0.284,48,6.92,48,15.106V33.178z" fill="none" stroke="#4F4F4F" stroke-width="2.8347"/>
<ellipse cx="24.345" cy="32.343" rx="22.829" ry="14.142" fill="url(#path11605_1_)"/><path d="m23.923 10.5c-3.362-7.5-1.891-8.75 5.044-6.75 6.787 1.958 14.498 10.25 13.868 1.5-0.668-9.27-9.456-14-9.456-14" fill="none" stroke="url(#path12260_1_)"/><path d="m9.94 27.131c-2.457 10.906 4.701 18.41 15.447 18.41 10.631 0 15.916-8.689 13.727-18.41l-3.49-13.014c-0.406-1.823-1.276-2.406-1.861-2.604-5.723-2.569-13.785-2.693-18.82 0-0.64 0.347-1.105 0.347-1.57 2.083z" fill="url(#path11595_1_)" stroke="#4f4f4f"/><g transform="matrix(.84053 0 0 1 4.1706 1)">
			
				<path d="m8.574 22.948c8.232-5.303 21.28-5.909 29.951-0.606-7.693-3.877-20.706-4.344-29.951 0.606z" fill="#fff" fill-opacity=".7966"/>
			<path d="m8.75 22.727c8.63-6.231 21.28-6.307 29.686-0.473-7.78-4.673-20.749-4.963-29.686 0.473z" fill-opacity=".2599"/>
		</g><ellipse cx="23.991" cy="11.331" rx="2.1718" ry="4.7477" fill="url(#path11617_1_)"/><path d="m10.487 28.908c-1.408 8.461 4.638 15.666 14.972 15.666s14.289-8.697 13.114-15.666l-3.725-13.958c-0.309-2.196-1.219-2.408-1.759-2.619-5.852-2.296-12.674-2.485-17.441 0-0.597 0.312-1.092 0.193-1.455 1.777z" fill="none" stroke="url(#path11633_1_)"/><ellipse cx="23.991" cy="11.331" rx="2.1718" ry="4.7477" fill="url(#path11619_1_)" stroke="#595959" stroke-width=".5454"/><ellipse cx="23.991" cy="11.331" rx="2.1718" ry="4.7477" fill="#fff" fill-opacity=".3333"/>
<radialGradient id="SVGID_3_" cx="29.752" cy="13.996" r="2.2414" gradientUnits="userSpaceOnUse">
	<stop stop-color="#fff" offset="0"/>
	<stop stop-color="#D9D9D9" offset=".3733"/>
	<stop stop-color="#C5C5C5" offset=".6031"/>
	<stop stop-color="#909090" offset="1"/>
</radialGradient>
<polygon points="28.335 12.579 29.752 11.162 31.17 12.579 30.318 12.579 30.318 15.414 31.17 15.414 29.752 16.831 28.335 15.414 29.186 15.414 29.186 12.579" fill="url(#SVGID_3_)" stroke="#4F4F4F" stroke-width=".2835"/>
<radialGradient id="SVGID_4_" cx="18.696" cy="13.996" r="2.2412" gradientUnits="userSpaceOnUse">
	<stop stop-color="#fff" offset="0"/>
	<stop stop-color="#D9D9D9" offset=".3733"/>
	<stop stop-color="#C5C5C5" offset=".6031"/>
	<stop stop-color="#909090" offset="1"/>
</radialGradient>
<polygon points="17.279 12.579 18.696 11.162 20.114 12.579 19.263 12.579 19.263 15.414 20.114 15.414 18.696 16.831 17.279 15.414 18.129 15.414 18.129 12.579" fill="url(#SVGID_4_)" stroke="#4F4F4F" stroke-width=".2835"/>
<path d="M48,33.178C48,41.363,41.3,48,33.035,48h-18.07  C6.7,48,0,41.363,0,33.178V15.106C0,6.92,6.7,0.284,14.965,0.284h18.07C41.3,0.284,48,6.92,48,15.106V33.178z" fill="none" stroke="#4F4F4F" stroke-width="2.8347"/>
</svg>
