<?xml version="1.0" encoding="UTF-8"?>
<svg width="52.44px" height="52.157px" enable-background="new -2.279 -1.878 52.44 52.157" version="1.1" viewBox="-2.279 -1.878 52.44 52.157" xml:space="preserve" xmlns="http://www.w3.org/2000/svg" xmlns:xlink="http://www.w3.org/1999/xlink">
<path d="M48,33.178C48,41.363,41.3,48,33.035,48h-18.07  C6.7,48,0,41.363,0,33.178V15.106C0,6.92,6.7,0.284,14.965,0.284h18.07C41.3,0.284,48,6.92,48,15.106V33.178z" fill="#54C2BA" stroke="#4F4F4F" stroke-width="2.8347"/>
<defs>
	
	
		

	
	
	
	

	
	
	

		
			<radialGradient id="path11605_1_" cx="377.06" cy="-417.79" r="22.829" gradientTransform="matrix(.6842 0 0 -.7688 -233.35 -290.25)" gradientUnits="userSpaceOnUse">
			<stop offset="0"/>
			<stop stop-opacity="0" offset="1"/>
		</radialGradient>
		
			
		
			<linearGradient id="path12260_1_" x1="312.85" x2="313.65" y1="-270.31" y2="-264.94" gradientTransform="matrix(.8405 0 0 -1 -230.22 -266.2)" gradientUnits="userSpaceOnUse">
			<stop stop-color="#ACACAC" offset="0"/>
			<stop stop-color="#8D8D8D" stop-opacity="0" offset="1"/>
		</linearGradient>
		
			
		
			<radialGradient id="path11595_1_" cx="120.37" cy="-55.72" r="13.263" gradientTransform="matrix(1.8664 0 0 -2.3051 -203.23 -114.61)" gradientUnits="userSpaceOnUse">
			<stop stop-color="#fff" offset="0"/>
			<stop stop-color="#D9D9D9" offset=".3733"/>
			<stop stop-color="#C5C5C5" offset=".6031"/>
			<stop stop-color="#909090" offset="1"/>
		</radialGradient>
		
			
		
		
			<linearGradient id="path11617_1_" x1="141.68" x2="141.68" y1="-162.09" y2="-156.45" gradientTransform="matrix(1.6663 0 0 -1.4178 -211.81 -211.27)" gradientUnits="userSpaceOnUse">
			<stop stop-color="#fff" offset="0"/>
			<stop stop-color="#A9A9A9" offset="1"/>
		</linearGradient>
		
			
		
			<linearGradient id="path11633_1_" x1="329.3" x2="334.5" y1="-267.66" y2="-321.58" gradientTransform="matrix(.7714 0 0 -1 -231.64 -265.2)" gradientUnits="userSpaceOnUse">
			<stop stop-color="#fff" offset="0"/>
			<stop stop-color="#fff" stop-opacity="0" offset="1"/>
		</linearGradient>
		
			
		
			<linearGradient id="path11619_1_" x1="302.86" x2="302.86" y1="-272.78" y2="-281.26" gradientTransform="matrix(.8405 0 0 -1 -230.3 -263.46)" gradientUnits="userSpaceOnUse">
			<stop stop-color="#B1B1B1" offset="0"/>
			<stop stop-color="#DFDFDF" offset=".2"/>
			<stop stop-color="#565656" offset="1"/>
		</linearGradient>
		
			
		
			
	
			
				
			
		</defs>

<path d="M48,33.178C48,41.363,41.3,48,33.035,48h-18.07  C6.7,48,0,41.363,0,33.178V15.106C0,6.92,6.7,0.284,14.965,0.284h18.07C41.3,0.284,48,6.92,48,15.106V33.178z" fill="none" stroke="#4F4F4F" stroke-width="2.8347"/>
<ellipse cx="24.345" cy="32.343" rx="22.829" ry="14.142" fill="url(#path11605_1_)"/><path d="m23.923 10.5c-3.362-7.5-1.891-8.75 5.044-6.75 6.787 1.958 14.498 10.25 13.868 1.5-0.668-9.27-9.456-14-9.456-14" fill="none" stroke="url(#path12260_1_)"/><path d="m9.94 27.131c-2.457 10.906 4.701 18.41 15.447 18.41 10.631 0 15.916-8.689 13.727-18.41l-3.49-13.014c-0.406-1.823-1.276-2.406-1.861-2.604-5.723-2.569-13.785-2.693-18.82 0-0.64 0.347-1.105 0.347-1.57 2.083z" fill="url(#path11595_1_)" stroke="#4f4f4f"/><path d="m11.377 23.948c6.9192-5.303 17.886-5.909 25.175-0.606-6.4662-3.877-17.404-4.344-25.175 0.606z" fill="#fff" fill-opacity=".7966" stroke-width=".9168"/><path d="m11.525 23.727c7.2538-6.231 17.886-6.307 24.952-0.473-6.5393-4.673-17.44-4.963-24.952 0.473z" fill-opacity=".2599" stroke-width=".9168"/><ellipse cx="23.991" cy="11.331" rx="2.1718" ry="4.7477" fill="url(#path11617_1_)"/><path d="m10.487 28.908c-1.408 8.461 4.638 15.666 14.972 15.666s14.289-8.697 13.114-15.666l-3.725-13.958c-0.309-2.196-1.219-2.408-1.759-2.619-5.852-2.296-12.674-2.485-17.441 0-0.597 0.312-1.092 0.193-1.455 1.777z" fill="none" stroke="url(#path11633_1_)"/><ellipse cx="23.991" cy="11.331" rx="2.1718" ry="4.7477" fill="url(#path11619_1_)" stroke="#595959" stroke-width=".5454"/><ellipse cx="23.991" cy="11.331" rx="2.1718" ry="4.7477" fill="#fff" fill-opacity=".3333"/>
<radialGradient id="SVGID_3_" cx="29.752" cy="13.996" r="2.2414" gradientUnits="userSpaceOnUse">
	<stop stop-color="#fff" offset="0"/>
	<stop stop-color="#D9D9D9" offset=".3733"/>
	<stop stop-color="#C5C5C5" offset=".6031"/>
	<stop stop-color="#909090" offset="1"/>
</radialGradient>
<polygon points="28.335 12.579 29.752 11.162 31.17 12.579 30.318 12.579 30.318 15.414 31.17 15.414 29.752 16.831 28.335 15.414 29.186 15.414 29.186 12.579" fill="url(#SVGID_3_)" stroke="#4F4F4F" stroke-width=".2835"/>
<radialGradient id="SVGID_4_" cx="18.696" cy="13.996" r="2.2412" gradientUnits="userSpaceOnUse">
	<stop stop-color="#fff" offset="0"/>
	<stop stop-color="#D9D9D9" offset=".3733"/>
	<stop stop-color="#C5C5C5" offset=".6031"/>
	<stop stop-color="#909090" offset="1"/>
</radialGradient>
<polygon points="17.279 12.579 18.696 11.162 20.114 12.579 19.263 12.579 19.263 15.414 20.114 15.414 18.696 16.831 17.279 15.414 18.129 15.414 18.129 12.579" fill="url(#SVGID_4_)" stroke="#4F4F4F" stroke-width=".2835"/>
<path d="M48,33.178C48,41.363,41.3,48,33.035,48h-18.07  C6.7,48,0,41.363,0,33.178V15.106C0,6.92,6.7,0.284,14.965,0.284h18.07C41.3,0.284,48,6.92,48,15.106V33.178z" fill="none" stroke="#4F4F4F" stroke-width="2.8347"/>
<path d="m5.789 30.139 3.952 5.979v-6.035c0-0.392 0.084-0.686 0.252-0.882s0.396-0.294 0.682-0.294c0.295 0 0.528 0.098 0.699 0.294 0.17 0.196 0.256 0.49 0.256 0.882v7.979c0 0.891-0.369 1.336-1.107 1.336-0.185 0-0.351-0.026-0.498-0.079-0.148-0.054-0.286-0.138-0.416-0.253-0.129-0.115-0.249-0.25-0.36-0.405-0.11-0.154-0.221-0.313-0.332-0.474l-3.854-5.91v5.944c0 0.388-0.09 0.681-0.27 0.879-0.18 0.199-0.411 0.298-0.692 0.298-0.291 0-0.523-0.101-0.699-0.301-0.175-0.201-0.263-0.492-0.263-0.876v-7.827c0-0.331 0.037-0.593 0.111-0.782 0.088-0.207 0.233-0.377 0.436-0.508 0.203-0.132 0.422-0.197 0.658-0.197 0.184 0 0.342 0.029 0.474 0.09s0.247 0.141 0.346 0.242 0.201 0.232 0.305 0.395c0.101 0.161 0.209 0.329 0.32 0.505z"/><path d="m18.342 28.906c1.052 0 1.955 0.213 2.709 0.641 0.754 0.426 1.325 1.033 1.713 1.819 0.388 0.787 0.582 1.711 0.582 2.771 0 0.785-0.106 1.497-0.318 2.139s-0.531 1.197-0.955 1.668c-0.425 0.471-0.946 0.83-1.564 1.079-0.619 0.25-1.327 0.374-2.125 0.374-0.793 0-1.504-0.128-2.131-0.384s-1.151-0.617-1.571-1.083-0.737-1.026-0.952-1.682-0.322-1.363-0.322-2.125c0-0.779 0.112-1.495 0.335-2.146 0.224-0.65 0.548-1.204 0.973-1.66 0.424-0.457 0.941-0.807 1.55-1.049 0.609-0.241 1.301-0.362 2.076-0.362zm2.921 5.218c0-0.742-0.12-1.386-0.36-1.931-0.24-0.544-0.583-0.956-1.028-1.235s-0.957-0.419-1.533-0.419c-0.411 0-0.79 0.077-1.138 0.232-0.349 0.154-0.648 0.379-0.9 0.675-0.251 0.295-0.45 0.672-0.595 1.131-0.146 0.459-0.218 0.975-0.218 1.547 0 0.577 0.073 1.099 0.218 1.564 0.145 0.466 0.35 0.853 0.616 1.159 0.265 0.307 0.57 0.536 0.914 0.688s0.721 0.229 1.131 0.229c0.526 0 1.009-0.132 1.45-0.395 0.441-0.264 0.792-0.669 1.052-1.218 0.26-0.548 0.391-1.224 0.391-2.027z"/><path d="m27.865 34.886h-0.721v3.259c0 0.43-0.094 0.746-0.283 0.948-0.189 0.203-0.436 0.305-0.74 0.305-0.328 0-0.582-0.106-0.762-0.318s-0.27-0.523-0.27-0.935v-7.806c0-0.443 0.1-0.764 0.297-0.962 0.199-0.199 0.52-0.298 0.963-0.298h3.342c0.463 0 0.857 0.02 1.184 0.06 0.328 0.039 0.623 0.118 0.887 0.238 0.318 0.134 0.6 0.325 0.844 0.574s0.43 0.539 0.557 0.868c0.127 0.33 0.191 0.68 0.191 1.049 0 0.757-0.213 1.361-0.641 1.813-0.426 0.452-1.074 0.772-1.941 0.962 0.365 0.193 0.713 0.479 1.045 0.857 0.332 0.379 0.629 0.781 0.891 1.208 0.26 0.427 0.463 0.813 0.607 1.155 0.146 0.344 0.219 0.581 0.219 0.71 0 0.134-0.043 0.267-0.129 0.397-0.084 0.132-0.201 0.235-0.35 0.312-0.146 0.076-0.318 0.114-0.512 0.114-0.23 0-0.424-0.054-0.58-0.162-0.158-0.108-0.293-0.246-0.406-0.412s-0.266-0.41-0.459-0.733l-0.824-1.37c-0.295-0.503-0.559-0.886-0.793-1.149-0.232-0.263-0.469-0.442-0.709-0.539-0.241-0.097-0.542-0.145-0.907-0.145zm1.176-4.264h-1.896v2.789h1.842c0.494 0 0.908-0.042 1.246-0.128 0.336-0.085 0.594-0.23 0.771-0.436s0.266-0.488 0.266-0.847c0-0.282-0.07-0.53-0.215-0.744-0.143-0.215-0.34-0.375-0.594-0.481-0.24-0.102-0.713-0.153-1.42-0.153z"/><path d="m38.725 37.695-1.627-6.464v7.004c0 0.387-0.086 0.678-0.26 0.872-0.174 0.193-0.402 0.29-0.688 0.29-0.277 0-0.504-0.096-0.68-0.287s-0.262-0.483-0.262-0.875v-8.028c0-0.443 0.115-0.741 0.346-0.896 0.23-0.154 0.541-0.231 0.934-0.231h0.637c0.383 0 0.66 0.034 0.834 0.104 0.174 0.068 0.301 0.193 0.385 0.373 0.082 0.18 0.178 0.473 0.283 0.879l1.475 5.558 1.473-5.558c0.107-0.406 0.201-0.699 0.285-0.879 0.082-0.18 0.211-0.305 0.383-0.373 0.174-0.07 0.451-0.104 0.834-0.104h0.637c0.393 0 0.705 0.077 0.936 0.231 0.23 0.155 0.346 0.453 0.346 0.896v8.028c0 0.387-0.086 0.678-0.26 0.872-0.174 0.193-0.404 0.29-0.695 0.29-0.273 0-0.496-0.097-0.672-0.29-0.176-0.194-0.262-0.485-0.262-0.872v-7.004l-1.627 6.464c-0.107 0.42-0.193 0.728-0.26 0.924s-0.189 0.375-0.371 0.536c-0.18 0.161-0.428 0.242-0.746 0.242-0.24 0-0.443-0.052-0.609-0.155-0.166-0.104-0.295-0.236-0.389-0.398-0.092-0.161-0.164-0.34-0.217-0.536s-0.109-0.401-0.163-0.613z"/>
</svg>
