<?xml version="1.0" encoding="UTF-8"?>
<svg width="52.44px" height="52.157px" enable-background="new -2.279 -1.878 52.44 52.157" version="1.1" viewBox="-2.279 -1.878 52.44 52.157" xml:space="preserve" xmlns="http://www.w3.org/2000/svg" xmlns:xlink="http://www.w3.org/1999/xlink">
<path d="M48,33.178C48,41.363,41.3,48,33.035,48h-18.07  C6.7,48,0,41.363,0,33.178V15.106C0,6.92,6.7,0.284,14.965,0.284h18.07C41.3,0.284,48,6.92,48,15.106V33.178z" fill="#AA4198" stroke="#4F4F4F" stroke-width="2.8347"/>
<defs>
	
	
		

	
	
	

	
	
	

		
			<radialGradient id="path11605_1_" cx="377.06" cy="-417.79" r="22.829" gradientTransform="matrix(.6842 0 0 -.7688 -233.35 -290.25)" gradientUnits="userSpaceOnUse">
			<stop offset="0"/>
			<stop stop-opacity="0" offset="1"/>
		</radialGradient>
		
			
		
			<linearGradient id="path12260_1_" x1="312.85" x2="313.65" y1="-270.31" y2="-264.94" gradientTransform="matrix(.8405 0 0 -1 -230.22 -266.2)" gradientUnits="userSpaceOnUse">
			<stop stop-color="#ACACAC" offset="0"/>
			<stop stop-color="#8D8D8D" stop-opacity="0" offset="1"/>
		</linearGradient>
		
			
		
			<radialGradient id="path11595_1_" cx="120.37" cy="-55.72" r="13.263" gradientTransform="matrix(1.8664 0 0 -2.3051 -203.23 -114.61)" gradientUnits="userSpaceOnUse">
			<stop stop-color="#fff" offset="0"/>
			<stop stop-color="#D9D9D9" offset=".3733"/>
			<stop stop-color="#C5C5C5" offset=".6031"/>
			<stop stop-color="#909090" offset="1"/>
		</radialGradient>
		
			
		
		
			<linearGradient id="path11617_1_" x1="141.68" x2="141.68" y1="-162.09" y2="-156.45" gradientTransform="matrix(1.6663 0 0 -1.4178 -211.81 -211.27)" gradientUnits="userSpaceOnUse">
			<stop stop-color="#fff" offset="0"/>
			<stop stop-color="#A9A9A9" offset="1"/>
		</linearGradient>
		
			
		
			<linearGradient id="path11633_1_" x1="329.3" x2="334.5" y1="-267.66" y2="-321.58" gradientTransform="matrix(.7714 0 0 -1 -231.64 -265.2)" gradientUnits="userSpaceOnUse">
			<stop stop-color="#fff" offset="0"/>
			<stop stop-color="#fff" stop-opacity="0" offset="1"/>
		</linearGradient>
		
			
		
			<linearGradient id="path11619_1_" x1="302.86" x2="302.86" y1="-272.78" y2="-281.26" gradientTransform="matrix(.8405 0 0 -1 -230.3 -263.46)" gradientUnits="userSpaceOnUse">
			<stop stop-color="#B1B1B1" offset="0"/>
			<stop stop-color="#DFDFDF" offset=".2"/>
			<stop stop-color="#565656" offset="1"/>
		</linearGradient>
		
			
		
			
	</defs>

<path d="M48,33.178C48,41.363,41.3,48,33.035,48h-18.07  C6.7,48,0,41.363,0,33.178V15.106C0,6.92,6.7,0.284,14.965,0.284h18.07C41.3,0.284,48,6.92,48,15.106V33.178z" fill="none" stroke="#4F4F4F" stroke-width="2.8347"/>
<ellipse cx="24.345" cy="32.343" rx="22.829" ry="14.142" fill="url(#path11605_1_)"/><path d="m23.923 10.5c-3.362-7.5-1.891-8.75 5.044-6.75 6.787 1.958 14.498 10.25 13.868 1.5-0.668-9.27-9.456-14-9.456-14" fill="none" stroke="url(#path12260_1_)"/><path d="m9.94 27.131c-2.457 10.906 4.701 18.41 15.447 18.41 10.631 0 15.916-8.689 13.727-18.41l-3.49-13.014c-0.406-1.823-1.276-2.406-1.861-2.604-5.723-2.569-13.785-2.693-18.82 0-0.64 0.347-1.105 0.347-1.57 2.083z" fill="url(#path11595_1_)" stroke="#4f4f4f"/><g transform="matrix(.84053 0 0 1 4.1706 1)">
			
				<path d="m8.574 22.948c8.232-5.303 21.28-5.909 29.951-0.606-7.693-3.877-20.706-4.344-29.951 0.606z" fill="#fff" fill-opacity=".7966"/>
			<path d="m8.75 22.727c8.63-6.231 21.28-6.307 29.686-0.473-7.78-4.673-20.749-4.963-29.686 0.473z" fill-opacity=".2599"/>
		</g><ellipse cx="23.991" cy="11.331" rx="2.1718" ry="4.7477" fill="url(#path11617_1_)"/><path d="m10.487 28.908c-1.408 8.461 4.638 15.666 14.972 15.666s14.289-8.697 13.114-15.666l-3.725-13.958c-0.309-2.196-1.219-2.408-1.759-2.619-5.852-2.296-12.674-2.485-17.441 0-0.597 0.312-1.092 0.193-1.455 1.777z" fill="none" stroke="url(#path11633_1_)"/><ellipse cx="23.991" cy="11.331" rx="2.1718" ry="4.7477" fill="url(#path11619_1_)" stroke="#595959" stroke-width=".5454"/><ellipse cx="23.991" cy="11.331" rx="2.1718" ry="4.7477" fill="#fff" fill-opacity=".3333"/>
<radialGradient id="SVGID_3_" cx="29.752" cy="13.996" r="2.2414" gradientUnits="userSpaceOnUse">
	<stop stop-color="#fff" offset="0"/>
	<stop stop-color="#D9D9D9" offset=".3733"/>
	<stop stop-color="#C5C5C5" offset=".6031"/>
	<stop stop-color="#909090" offset="1"/>
</radialGradient>
<polygon points="28.335 12.579 29.752 11.162 31.17 12.579 30.318 12.579 30.318 15.414 31.17 15.414 29.752 16.831 28.335 15.414 29.186 15.414 29.186 12.579" fill="url(#SVGID_3_)" stroke="#4F4F4F" stroke-width=".2835"/>
<radialGradient id="SVGID_4_" cx="18.696" cy="13.996" r="2.2412" gradientUnits="userSpaceOnUse">
	<stop stop-color="#fff" offset="0"/>
	<stop stop-color="#D9D9D9" offset=".3733"/>
	<stop stop-color="#C5C5C5" offset=".6031"/>
	<stop stop-color="#909090" offset="1"/>
</radialGradient>
<polygon points="17.279 12.579 18.696 11.162 20.114 12.579 19.263 12.579 19.263 15.414 20.114 15.414 18.696 16.831 17.279 15.414 18.129 15.414 18.129 12.579" fill="url(#SVGID_4_)" stroke="#4F4F4F" stroke-width=".2835"/>
<path d="M48,33.178C48,41.363,41.3,48,33.035,48h-18.07  C6.7,48,0,41.363,0,33.178V15.106C0,6.92,6.7,0.284,14.965,0.284h18.07C41.3,0.284,48,6.92,48,15.106V33.178z" fill="none" stroke="#4F4F4F" stroke-width="2.8347"/>
<path d="m13.169 34.886h-0.72v3.259c0 0.43-0.095 0.746-0.284 0.948-0.189 0.203-0.436 0.305-0.741 0.305-0.328 0-0.581-0.106-0.761-0.318s-0.27-0.523-0.27-0.935v-7.806c0-0.443 0.099-0.764 0.298-0.962 0.198-0.199 0.519-0.298 0.962-0.298h3.343c0.461 0 0.855 0.02 1.183 0.06 0.328 0.039 0.623 0.118 0.886 0.238 0.318 0.134 0.6 0.325 0.844 0.574 0.245 0.249 0.43 0.539 0.557 0.868 0.127 0.33 0.19 0.68 0.19 1.049 0 0.757-0.213 1.361-0.64 1.813s-1.074 0.772-1.941 0.962c0.364 0.193 0.712 0.479 1.045 0.857 0.332 0.379 0.628 0.781 0.889 1.208s0.464 0.813 0.609 1.155c0.146 0.344 0.218 0.581 0.218 0.71 0 0.134-0.043 0.267-0.128 0.397-0.085 0.132-0.202 0.235-0.35 0.312-0.148 0.076-0.318 0.114-0.512 0.114-0.231 0-0.425-0.054-0.582-0.162s-0.292-0.246-0.405-0.412-0.266-0.41-0.46-0.733l-0.824-1.37c-0.295-0.503-0.56-0.886-0.792-1.149-0.233-0.263-0.469-0.442-0.709-0.539-0.238-0.097-0.54-0.145-0.905-0.145zm1.177-4.264h-1.896v2.789h1.841c0.494 0 0.909-0.042 1.246-0.128 0.337-0.085 0.594-0.23 0.771-0.436 0.178-0.205 0.267-0.488 0.267-0.848 0-0.282-0.072-0.53-0.214-0.744-0.143-0.215-0.342-0.375-0.595-0.481-0.242-0.101-0.714-0.152-1.42-0.152z"/><path d="m27.287 30.664h-4.63v2.491h4.263c0.314 0 0.549 0.07 0.703 0.211s0.232 0.326 0.232 0.558c0 0.23-0.076 0.418-0.229 0.563s-0.389 0.218-0.707 0.218h-4.263v2.887h4.79c0.322 0 0.564 0.074 0.729 0.225 0.164 0.149 0.246 0.35 0.246 0.599 0 0.24-0.082 0.435-0.246 0.585-0.164 0.149-0.406 0.225-0.729 0.225h-5.586c-0.447 0-0.769-0.1-0.965-0.298s-0.294-0.519-0.294-0.962v-7.626c0-0.296 0.043-0.536 0.131-0.724 0.087-0.187 0.225-0.322 0.412-0.408 0.187-0.085 0.426-0.128 0.716-0.128h5.426c0.328 0 0.57 0.073 0.73 0.218 0.158 0.146 0.238 0.336 0.238 0.571 0 0.239-0.08 0.433-0.238 0.578-0.159 0.144-0.401 0.217-0.729 0.217z"/><path d="m31.557 30.256 2.297 6.803 2.305-6.852c0.121-0.359 0.211-0.609 0.271-0.751 0.059-0.141 0.158-0.267 0.297-0.38s0.328-0.17 0.566-0.17c0.176 0 0.338 0.044 0.488 0.131 0.15 0.088 0.268 0.205 0.354 0.35 0.086 0.146 0.129 0.292 0.129 0.439 0 0.102-0.016 0.211-0.043 0.329-0.027 0.117-0.063 0.233-0.104 0.346s-0.082 0.229-0.125 0.35l-2.457 6.63c-0.086 0.254-0.174 0.495-0.262 0.724s-0.189 0.429-0.305 0.602-0.27 0.315-0.461 0.426-0.426 0.166-0.701 0.166c-0.277 0-0.512-0.054-0.703-0.162s-0.346-0.252-0.463-0.43c-0.119-0.178-0.221-0.379-0.309-0.605s-0.176-0.466-0.264-0.72l-2.414-6.574c-0.043-0.12-0.084-0.237-0.129-0.354-0.043-0.115-0.08-0.239-0.111-0.373-0.029-0.134-0.045-0.247-0.045-0.34 0-0.234 0.096-0.449 0.285-0.643 0.188-0.194 0.426-0.291 0.713-0.291 0.35 0 0.598 0.107 0.744 0.322 0.146 0.213 0.294 0.556 0.447 1.027z"/>
</svg>
